<?xml version="1.0" encoding="UTF-8"?>
<svg xmlns="http://www.w3.org/2000/svg" xmlns:xlink="http://www.w3.org/1999/xlink" width="1544" height="500" viewBox="0 0 1544 500" role="img" aria-labelledby="title desc">
  <title id="title">Spectral Dot Reservations</title>
  <desc id="desc">Timed product reservations for WooCommerce.</desc>
  <defs>
    <linearGradient id="background" x1="0" y1="0" x2="1544" y2="500" gradientUnits="userSpaceOnUse">
      <stop offset="0" stop-color="#04172f"/>
      <stop offset="0.48" stop-color="#092c59"/>
      <stop offset="1" stop-color="#0d647e"/>
    </linearGradient>
    <linearGradient id="panel" x1="102" y1="83" x2="411" y2="412" gradientUnits="userSpaceOnUse">
      <stop offset="0" stop-color="#ffffff"/>
      <stop offset="1" stop-color="#eaf5f3"/>
    </linearGradient>
    <linearGradient id="amber" x1="0" y1="0" x2="1" y2="1">
      <stop offset="0" stop-color="#ffd05a"/>
      <stop offset="1" stop-color="#ffad18"/>
    </linearGradient>
    <pattern id="grid" width="44" height="44" patternUnits="userSpaceOnUse">
      <path d="M44 0H0V44" fill="none" stroke="#ffffff" stroke-width="1" opacity="0.055"/>
    </pattern>
  </defs>

  <rect width="1544" height="500" fill="url(#background)"/>
  <rect width="1544" height="500" fill="url(#grid)"/>
  <circle cx="1450" cy="20" r="308" fill="#16a5c7" opacity="0.13"/>
  <circle cx="1396" cy="465" r="258" fill="#ffbf2f" opacity="0.10"/>
  <path d="M0 390C183 314 312 326 465 411C590 480 772 502 934 444C1101 384 1260 341 1544 397V500H0Z" fill="#0a2144" opacity="0.72"/>
  <path d="M0 423C184 350 320 371 469 448C590 510 750 519 906 471" fill="none" stroke="url(#amber)" stroke-width="9" opacity="0.95"/>

  <rect x="92" y="92" width="326" height="326" rx="76" fill="#010b19" opacity="0.34"/>
  <rect x="92" y="74" width="326" height="326" rx="76" fill="url(#panel)"/>
  <rect x="92" y="74" width="326" height="326" rx="76" fill="none" stroke="#ffbf2f" stroke-width="5"/>
  <circle cx="255" cy="237" r="100" fill="none" stroke="#082b57" stroke-width="14"/>
  <path d="M255 166V237L307 272" fill="none" stroke="#082b57" stroke-width="14" stroke-linecap="round"/>
  <circle cx="255" cy="237" r="21" fill="#16a5c7"/>

  <g transform="translate(488 0)">
    <text x="0" y="221" fill="#ffffff" font-family="Ubuntu, sans-serif" font-size="76" font-weight="700" letter-spacing="-2">Spectral Dot</text>
    <rect x="2" y="252" width="92" height="7" rx="3.5" fill="url(#amber)"/>
    <text x="0" y="309" fill="#d9edf1" font-family="Ubuntu, sans-serif" font-size="31" font-weight="400" letter-spacing="0.8">Timed product reservations for WooCommerce</text>
    <g transform="translate(0 348)">
      <rect width="205" height="50" rx="25" fill="#ffffff" opacity="0.10"/>
      <circle cx="27" cy="25" r="8" fill="#ffbf2f"/>
      <text x="49" y="32" fill="#ffffff" font-family="Ubuntu, sans-serif" font-size="19" font-weight="700" letter-spacing="1.2">RESERVE</text>
      <path d="M223 25H278" stroke="#70c8da" stroke-width="3" stroke-linecap="round"/>
      <path d="M267 14L279 25L267 36" fill="none" stroke="#70c8da" stroke-width="3" stroke-linecap="round" stroke-linejoin="round"/>
      <rect x="300" width="205" height="50" rx="25" fill="#ffffff" opacity="0.10"/>
      <circle cx="327" cy="25" r="8" fill="#5fd1b8"/>
      <text x="349" y="32" fill="#ffffff" font-family="Ubuntu, sans-serif" font-size="19" font-weight="700" letter-spacing="1.2">DECIDE</text>
      <path d="M523 25H578" stroke="#70c8da" stroke-width="3" stroke-linecap="round"/>
      <path d="M567 14L579 25L567 36" fill="none" stroke="#70c8da" stroke-width="3" stroke-linecap="round" stroke-linejoin="round"/>
      <rect x="600" width="205" height="50" rx="25" fill="#ffffff" opacity="0.10"/>
      <circle cx="627" cy="25" r="8" fill="#16a5c7"/>
      <text x="649" y="32" fill="#ffffff" font-family="Ubuntu, sans-serif" font-size="19" font-weight="700" letter-spacing="1.2">FULFILL</text>
    </g>
  </g>
</svg>
